<svg height='100px' width='100px'  fill="#4d7092" xmlns="http://www.w3.org/2000/svg" xmlns:xlink="http://www.w3.org/1999/xlink" version="1.1" x="0px" y="0px" viewBox="0 0 100 100" enable-background="new 0 0 100 100" xml:space="preserve"><path fill-rule="evenodd" clip-rule="evenodd" fill="#ff0000" d="M30.691,19.151c1.419,0.084,2.909,0.018,3.524,1.744  c0.063,0.179,0.293,0.229,0.475,0.14c0.215-0.103,0.385-0.286,0.328-0.543c-0.285-1.337-0.311-2.616-1.055-3.823  c-0.518-0.834-1.273-1.593-2.305-1.655c-1.164-0.069-1.9,0.603-2.34,1.574C28.712,17.924,29.137,19.059,30.691,19.151z   M31.405,24.653c1.167-0.488,2.345-0.501,3.451,0.105c0.246,0.137,0.938,0.658,1.236,0.4c0.301-0.258-0.156-0.879-0.297-1.107  c-1.363-2.189-5.113-4.233-7.441-2.25c-0.844,0.717-1.498,2.129-0.619,3.071C28.765,25.975,30.296,25.117,31.405,24.653z   M20.118,47.934c0.814-0.333,1.309-1.277,1.043-1.99c-0.219-0.594-1.36-0.961-2.022-0.655c-0.81,0.376-1.243,1.198-0.994,1.882  C18.391,47.846,19.388,48.233,20.118,47.934z M42.59,21.97c-0.696,0.044-1.371,0.203-1.856,0.41  c-0.943,0.404-1.821,1.038-2.502,1.803c-0.677,0.761-0.945,1.753-1.516,2.581c-0.236,0.341,0.027,0.721,0.57,0.514  c0.248-0.727,0.905-0.691,1.483-0.805c1.231-0.242,2.437,0.291,3.69,0.141c1.597-0.189,3.764-0.939,3.336-2.961  C45.501,22.262,43.996,21.881,42.59,21.97z M93.806,61.156c-0.404-0.928-1.042-1.838-1.834-2.619  c-2.073-2.051-5.192-3.23-7.85-1.594c-1.549,0.953-2.281,0.693-3.614-0.596c-1.168-1.131-2.572-2.209-4.253-2.322  c-1.684-0.113-3.602,0.492-5.1,1.217c-2.522,1.223-5.041,4.9-3.054,7.559c0.902,1.207,2.09,1.102,3.369,0.846  c1.737-0.348,3.398,0.674,4.399,2.623c0.575,1.119,0.179,2.445-1.148,3.654c-1.766,1.605-3.869,2.477-6.24,2.631  c-2.504,0.16-5.5-1.891-6.185-4.26c-0.422-1.455-0.83-2.938-0.92-4.451c-0.271-4.705-1-9.307-2.612-13.758  c-0.287-0.79-0.201-1.687-0.484-2.526c-0.493-1.443-1.237-2.732-2.083-3.979c-0.484-1.442-1.652-2.445-2.403-3.695  c-1.418-2.361-3.664-3.812-5.669-5.486c-1.62-1.354-3.759-2.24-5.665-3.117c-2.062-0.951-4.215-1.758-6.482-2.042  c-3.369-0.421-7.057-0.222-10.377,0.481c-3.666,0.775-6.422,2.377-9.522,4.415c-2.644,1.735-4.403,3.8-6.39,6.199  c-0.494,0.595-1,1.489-1.51,2.299c-0.789,1.246-1.116,2.295-1.584,3.383c-1.019,2.38-1.711,4.307-0.289,6.247  c0.352,0.477,0.711,1.018,0.674,1.605c-0.105,1.781,0.152,3.578-0.227,5.348c-0.026,0.135-0.046,0.271-0.061,0.41  c-0.138,0.457,0.192,0.895,0.051,1.35c-0.225,0.57-0.089,1.143-0.006,1.711c0.146,0.5,0.068,1.006,0.045,1.51  c0,0.629,0.172,1.287-0.29,1.846c-2.87,3.471,4.962,7.086,7.119,8.109c1.158,0.549,2.267,1.199,3.36,1.871  c0.891,0.551,1.709,1.26,2.716,1.596c0.74,0.25,1.796,0.184,2.142,1.039c0.741,1.848,1.375,4.352,2.869,5.729  c1.577,1.457,3.623,1.805,5.68,1.928c1.376,0.084,3.789,0.285,3.549-1.848c-0.086-0.764-0.297-1.516-0.461-2.27  c-0.11-0.516-0.28-1.023-0.158-1.598c0.518,0.1,0.867,0.512,1.354,0.34c0.76,0.592,2.168,0.818,3.076,1.094  c1.294,0.393,2.604,0.742,3.921,1.053c2.639,0.629,5.31,1.107,7.992,1.5c3.476,0.51,6.97,1.312,10.506,1.088  c3.056-0.195,5.96-1.133,8.649-2.574c5.235-2.801,10.173-7.045,11.993-12.9c0.325-1.051,0.97-1.982,1.625-2.859  c1.848-2.469,5.689-2.344,7.363,0.209c0.57,0.869,1.399,1.098,2.376,0.701c0.854-0.348,1.389-1.004,1.854-1.752  C94.839,64.861,94.506,62.773,93.806,61.156z M68.942,60.449c-0.057,0.002-0.151-0.102-0.168-0.17  c-0.037-0.129-0.016-0.283,0.163-0.285c0.061,0.002,0.127,0.105,0.189,0.16C69.13,60.295,69.109,60.439,68.942,60.449z   M70.005,59.303c0.125-0.598,0.482-0.965,1.083-1.182C71.11,58.936,70.291,58.875,70.005,59.303z M35.485,61.477  c0.049,0.137,0.017,0.254-0.105,0.314c-0.031,0.018-0.16-0.057-0.17-0.102c-0.014-0.07,0.023-0.172,0.076-0.221  C35.317,61.436,35.417,61.473,35.485,61.477z M35.44,63.426c0.02,0.064-0.041,0.148-0.068,0.223  c-0.066-0.035-0.18-0.057-0.191-0.105c-0.018-0.064,0.043-0.148,0.071-0.225C35.317,63.354,35.427,63.375,35.44,63.426z   M35.048,45.973c0.09-0.069,0.187-0.062,0.207,0.042c0.012,0.063-0.058,0.149-0.106,0.215c-0.011,0.017-0.116-0.007-0.116-0.011  C35.031,46.137,35.042,46.055,35.048,45.973z M35.361,65.098c-0.435,0.498-0.462,1.088-0.734,1.76  C34.428,65.197,34.428,65.197,35.361,65.098z M33.507,59.855c-0.33-0.59-0.291-1.023,0.035-1.734  C33.831,58.883,33.741,59.295,33.507,59.855z M33.542,65.693c-0.139,0.098-0.209-0.088-0.222-0.209  c-0.024-0.215-0.042-0.451,0.209-0.561c0.028-0.012,0.114,0.109,0.175,0.168C33.732,65.314,33.729,65.562,33.542,65.693z   M33.312,42.594c0.036-0.008,0.104,0.111,0.157,0.172c0.003,0.223,0.007,0.466-0.225,0.571c-0.156,0.072-0.222-0.085-0.216-0.22  C33.039,42.902,33.036,42.661,33.312,42.594z M32.808,45.346c0.145,0.359,0.145,0.359-0.064,0.924  C32.617,45.806,32.596,45.558,32.808,45.346z M32.813,61.846c-0.186,0.285-0.307,0.752-0.773,0.293  c-0.079,0.041-0.157,0.082-0.237,0.123c-0.084,0.012-0.198,0.062-0.244,0.027c-0.073-0.057-0.023-0.16,0.09-0.172  c0.13-0.014,0.261,0.014,0.392,0.021C32.265,61.955,32.368,61.443,32.813,61.846z M32.435,77.623  c-0.324-0.078-0.295-0.338-0.305-0.58C32.515,77.086,32.502,77.338,32.435,77.623z M31.974,52.43  c-0.004-0.129,0.014-0.312,0.165-0.281c0.145,0.033,0.083,0.215,0.038,0.33c-0.031,0.082-0.088,0.152-0.133,0.229  c0.045,0.398,0.105,0.795-0.256,1.27c-0.165-0.547-0.022-0.92,0.219-1.281C31.995,52.607,31.975,52.518,31.974,52.43z   M31.447,43.807c-0.183-0.387-0.095-0.679,0.233-1.074C31.849,43.198,31.835,43.506,31.447,43.807z M31.714,72.861  c0.241,0.369,0.264,0.66-0.08,1.004C31.431,73.5,31.388,73.209,31.714,72.861z M31.593,69.955c0.016-0.027,0.075-0.059,0.104-0.049  c0.097,0.033,0.124,0.111,0.068,0.205c-0.016,0.031-0.066,0.039-0.102,0.055C31.567,70.123,31.537,70.049,31.593,69.955z   M32.15,40.285c-0.076,0.073-0.194,0.071-0.21-0.019c-0.019-0.108,0.014-0.242,0.07-0.342c0.047-0.09,0.146-0.07,0.207,0.018  C32.276,40.072,32.247,40.188,32.15,40.285z M32.159,33.599c-0.13,0.526-0.309,0.856-0.837,1.052  C31.406,34.096,31.643,33.809,32.159,33.599z M30.879,35.747c0.369-0.036,0.214,0.285,0.245,0.477c0,0,0.004-0.002,0.006-0.003  c0.004,0.005,0.009,0.009,0.016,0.013c0.114,0.028,0.229,0.057,0.345,0.083c-0.188,0.259-0.241-0.013-0.345-0.083  c-0.006,0-0.012-0.003-0.021-0.005c-0.001-0.001-0.001-0.003-0.001-0.005c-0.152,0.092-0.332,0.224-0.436-0.025  C30.62,36.023,30.694,35.763,30.879,35.747z M30.928,58.385c0.005,0.014,0.009,0.025,0.013,0.039  c-0.004,0.006-0.006,0.014-0.016,0.021c0.066,0.326,0.02,0.629-0.199,0.896c0.002,0.008,0.001,0.014,0.004,0.023  c-0.001,0.002-0.016-0.01-0.016-0.01c0.006-0.004,0.006-0.01,0.012-0.014c-0.08-0.332-0.003-0.631,0.199-0.896  c0.002-0.012,0.001-0.02,0-0.029C30.925,58.406,30.927,58.395,30.928,58.385c-0.366-0.922-0.298-1.814,0.218-2.678  C31.319,56.617,31.024,57.492,30.928,58.385z M30.878,74.283c-0.02,0.014-0.15-0.088-0.173-0.156  c-0.068-0.207-0.124-0.434,0.136-0.559c0.033-0.016,0.123,0.094,0.193,0.146C31.081,73.93,31.106,74.146,30.878,74.283z   M30.997,54.561c-0.242-0.57-0.152-0.916,0.158-1.41C31.38,53.713,31.224,54.047,30.997,54.561z M30.852,47.42  c0.145,0.978,0.145,0.978-0.176,1.666C30.538,48.433,30.538,48.433,30.852,47.42z M29.362,66.096  c0.012-0.17,0.021-0.342,0.037-0.516c0.016-0.191-0.146-0.482,0.149-0.541c0.345-0.068,0.364,0.287,0.474,0.504  C29.86,65.799,29.983,66.391,29.362,66.096z M29.919,70.611c-0.146,0.268,0.084,0.65-0.256,0.867  C29.423,70.723,29.422,70.721,29.919,70.611z M28.881,60.082c0.759-0.203,1.187,0.146,0.987,0.848  c-0.159,0.557-0.402,1.09-0.607,1.633C29.047,61.748,30.024,60.754,28.881,60.082z M27.914,50.086  c-0.073,0.664,0.032,1.32-0.812,1.523c0.043-0.217,0.088-0.434,0.133-0.65C27.466,50.711,27.351,50.217,27.914,50.086z   M27.483,45.331c0.015-0.117,0.018-0.256,0.085-0.342c0.088-0.11,0.242-0.106,0.261,0.064c0.011,0.107-0.078,0.225-0.121,0.336  C27.614,45.366,27.481,45.339,27.483,45.331z M30.04,56.732c-0.008,0.393,0.117,0.805-0.221,1.229  c-0.322-0.51-0.062-0.881,0.147-1.258c-0.092-0.395-0.106-0.775,0.249-1.203C30.578,56.059,30.347,56.4,30.04,56.732z   M30.214,62.938c-0.02,0.07-0.087,0.131-0.131,0.195c-0.107,0.02-0.17-0.033-0.142-0.141c0.021-0.07,0.075-0.158,0.137-0.188  C30.173,62.76,30.243,62.83,30.214,62.938z M30.032,50.74c-0.098,0.045-0.179-0.031-0.156-0.145  c0.016-0.074,0.084-0.141,0.129-0.209c0.109-0.017,0.182,0.036,0.159,0.149C30.149,50.609,30.096,50.711,30.032,50.74z   M30.196,53.371c0.057-0.082,0.16-0.07,0.189,0.02c0.021,0.062,0,0.166-0.041,0.217c-0.027,0.031-0.133-0.004-0.201-0.012  C30.159,53.518,30.154,53.428,30.196,53.371z M30.272,46.034c-0.057-0.047-0.184-0.127-0.172-0.152  c0.046-0.119,0.13-0.224,0.2-0.332c0.063,0.055,0.171,0.104,0.18,0.168C30.503,45.862,30.428,45.982,30.272,46.034z M30.062,36.074  c-0.141,0.097-0.271,0.03-0.254-0.138c0.025-0.22,0.145-0.406,0.354-0.519c0.064,0.037,0.18,0.067,0.186,0.11  C30.378,35.767,30.246,35.948,30.062,36.074z M30.003,47.917c0.152,0.218-0.017,0.41-0.145,0.589  c0.156,0.558-0.131,1.013-0.355,1.476c-0.121,0.251-0.309,0.285-0.518,0.079c0.404-0.454,0.4-1.134,0.863-1.555  c-0.064-0.172-0.126-0.344-0.189-0.516C29.767,47.917,29.915,47.792,30.003,47.917z M29.345,53.844  c-0.268-0.43-0.122-0.715,0.102-1.201C29.751,53.195,29.605,53.477,29.345,53.844z M29.307,55.949  c-0.145,0.049-0.183-0.137-0.204-0.262c-0.033-0.176-0.048-0.348,0.152-0.441c0.166,0.008,0.217,0.123,0.223,0.258  C29.485,55.676,29.485,55.889,29.307,55.949z M29.726,42.784c-0.121,0.283-0.291,0.324-0.498,0.074l-0.006,0.002  c0.029-0.035,0.055-0.07,0.084-0.106c0.107-0.132,0.156-0.38,0.369-0.324C29.813,42.464,29.776,42.661,29.726,42.784z   M29.354,39.591c0.049-0.006,0.113,0.088,0.17,0.136c-0.058,0.055-0.115,0.109-0.173,0.166c-0.06-0.051-0.118-0.1-0.177-0.15  C29.233,39.689,29.286,39.601,29.354,39.591z M29.372,38.228c0.026-0.022,0.087-0.032,0.107-0.018  c0.085,0.059,0.078,0.135-0.002,0.208c-0.038,0.006-0.09,0.031-0.11,0.015C29.286,38.374,29.288,38.295,29.372,38.228z   M29.546,47.711c-0.336,0.248-0.236,0.873-0.807,0.916c0.074-0.359,0.07-0.759,0.237-1.068  C29.274,46.995,29.426,47.383,29.546,47.711z M28.185,45.598c0.179-0.26,0.36-0.52,0.54-0.779  C28.914,45.537,28.802,45.696,28.185,45.598z M28.508,53.273c-0.062-0.043-0.158-0.078-0.179-0.139  c-0.048-0.127-0.016-0.264,0.125-0.314c0.041-0.014,0.158,0.068,0.174,0.125C28.663,53.068,28.649,53.201,28.508,53.273z   M28.331,55.037c0.057,0.062,0.115,0.123,0.278,0.293c-0.048,0.053-0.119,0.184-0.228,0.242c-0.164,0.084-0.24-0.055-0.218-0.189  C28.185,55.264,28.272,55.154,28.331,55.037z M27.962,58.355c-0.1-0.521-0.27-1.043-0.004-1.566  C28.501,57.311,28.339,57.834,27.962,58.355z M27.808,52.945c-0.04,0.066-0.066,0.174-0.118,0.188  c-0.153,0.039-0.218-0.07-0.188-0.201c0.014-0.061,0.104-0.135,0.166-0.139C27.709,52.789,27.761,52.891,27.808,52.945z   M27.464,59.346c0-0.25,0.14-0.43,0.309-0.59c0.279,0.137,0.51,0.318,0.588,0.641l-0.002,0.008  c-0.188,1.074-0.053,2.146,0.059,3.217c-0.178,0.439,0.07,1.049-0.56,1.33c-0.417-0.084-0.381-0.484-0.386-0.752  C27.44,61.916,27.462,60.631,27.464,59.346z M28.852,74.826c-0.133-0.039-0.267-0.08-0.398-0.119  c-0.05-0.637-0.099-1.275-0.148-1.914C28.765,73.432,28.778,74.137,28.852,74.826z M28.923,56.9c0.555,0.533,0.242,0.977,0.09,1.422  C28.641,57.904,28.651,57.475,28.923,56.9z M29.921,70.604C29.921,70.604,29.921,70.604,29.921,70.604  c0.122-0.281-0.016-0.648,0.342-0.93c0.393,0.285,0.289,0.701,0.27,1.08c-0.008,0.141-0.107,0.268-0.261,0.24  C30.069,70.957,30.007,70.764,29.921,70.604c0,0.002,0,0.006-0.001,0.008L29.921,70.604z M28.956,35.208  c0.13-0.929,0.652-1.511,1.57-1.743C30.004,34.045,29.481,34.626,28.956,35.208z M29.981,32.909  c-0.25,0.428-0.525,0.652-1.111,0.711C29.122,33.045,29.451,32.908,29.981,32.909z M29.126,37.069  c0.144,0.643-0.061,0.883-0.49,1.102C28.476,37.694,28.739,37.457,29.126,37.069z M28.616,42.784  c-0.135,0.172-0.253,0.365-0.413,0.512c-0.293,0.264-0.344,0.003-0.397-0.216c-0.582-0.386-0.567-0.524,0.112-1.21  c-0.034,0.396-0.065,0.791-0.101,1.188c0.223-0.367,0.446-0.736,0.717-1.18C28.836,42.211,28.612,42.51,28.616,42.784z   M28.021,40.625c-0.135,0.082-0.242,0.334-0.407,0.207c-0.208-0.161,0.026-0.392,0.023-0.594c0.218-0.2,0.226-0.616,0.651-0.624  C28.437,40.022,28.058,40.28,28.021,40.625z M27.89,30.965c0.066-0.007,0.141,0.044,0.254,0.085c-0.123,0.079-0.217,0.162-0.324,0.2  c-0.055,0.018-0.199-0.051-0.197-0.07C27.637,31.03,27.764,30.979,27.89,30.965z M27.538,39.426  c-0.117,0.271-0.303,0.289-0.524,0.104l0.021-0.034c0.15-0.085,0.209-0.316,0.422-0.285C27.497,39.217,27.562,39.372,27.538,39.426z   M27.238,36.075c0.009,0.605-0.282,0.822-0.824,1.174C26.494,36.541,26.803,36.346,27.238,36.075z M26.968,52.861  c-0.045,0.111-0.146,0.277-0.225,0.277c-0.211,0.004-0.213-0.229-0.288-0.371c0.13-0.17,0.261-0.338,0.39-0.506  C26.99,52.441,27.052,52.645,26.968,52.861z M26.706,59.053c0.312,1.809,0.027,3.635,0.139,5.453  c0.012,0.232-0.167,0.436-0.422,0.469c-0.404,0.051-0.409-0.254-0.43-0.533c-0.014-0.178-0.023-0.361-0.037-0.541  c-0.007-1.381,0.201-2.768-0.112-4.141c0.048-0.266,0.079-0.539,0.147-0.801c0.051-0.184,0.184-0.324,0.399-0.291  C26.601,58.699,26.675,58.861,26.706,59.053z M26.233,53.051c-0.157,0.209-0.189,0.512-0.589,0.664  c-0.015-0.52,0.073-0.963,0.386-1.334c0.092-0.115,0.238,0.016,0.324,0.123C26.312,52.686,26.273,52.869,26.233,53.051z   M25.274,71.352c0.021,0.1-0.082,0.184-0.175,0.139c-0.274-0.133-0.321-0.383-0.374-0.664  C25.159,70.826,25.219,71.098,25.274,71.352z M24.806,67.178c-0.008-0.111,0.073-0.248,0.146-0.346  c0.062-0.078,0.156-0.037,0.228,0.092c-0.027,0.094-0.032,0.24-0.106,0.332C24.967,67.387,24.818,67.344,24.806,67.178z   M24.998,65.516c-0.28,0.041-0.339-0.227-0.43-0.414c-0.057-0.115-0.066-0.258-0.099-0.387c0.272-1.484,0.051-2.975,0.029-4.465  c0.002-0.314,0.036-0.637-0.001-0.947c-0.05-0.416,0.056-0.809,0.481-0.791c0.388,0.018,0.25,0.516,0.361,0.797  c-0.143,1.369-0.086,2.74,0.037,4.109c-0.018,0.527-0.016,1.053-0.059,1.578C25.302,65.201,25.276,65.475,24.998,65.516z   M24.395,55.557l-0.093,0.039c-0.015-0.039-0.034-0.076-0.045-0.117c-0.045-0.199-0.104-0.51,0.154-0.482  c0.264,0.027,0.068,0.338,0.076,0.525L24.395,55.557z M25.155,39.954c-0.01-0.562,0.277-0.992,0.679-1.602  c0.212,0.628-0.173,0.971-0.193,1.359C25.479,39.792,25.317,39.874,25.155,39.954z M24.897,35.324  c0.008-0.415,0.231-0.674,0.602-0.825C25.554,34.959,25.298,35.194,24.897,35.324z M26.153,50.744  c-0.057,0.234-0.23,0.379-0.498,0.229c0.24-0.469-0.029-1.183,0.691-1.415C26.286,49.954,26.247,50.355,26.153,50.744z   M26.13,31.125c-0.412,0.412-0.772,0.54-1.348,0.565C25.203,31.299,25.595,31.243,26.13,31.125z M24.216,38.239  c0.09-0.595,0.385-1.025,0.981-1.213c-0.259,0.461-0.455,0.973-0.979,1.219c-0.074,0.504-0.34,0.887-0.741,1.185  C23.56,38.93,23.767,38.51,24.216,38.239z M23.037,52.143c0.018-0.074,0.081-0.141,0.13-0.209c-0.006-0.006-0.009-0.016-0.012-0.023  c0.007-0.01,0.014-0.018,0.02-0.027c-0.047-0.455,0.002-0.887,0.41-1.279c0.218,0.582-0.121,0.924-0.41,1.279  c0.004,0.014,0.002,0.025,0.002,0.037c-0.004,0.004-0.007,0.01-0.01,0.014c0.033,0.074,0.077,0.15,0.082,0.227  c0.008,0.123-0.014,0.248-0.042,0.371c-0.003,0.014-0.134-0.004-0.207-0.006C23.011,52.396,23.007,52.266,23.037,52.143z   M23.33,58.119c0.299,0.016,0.303,0.254,0.34,0.482c0.099,0.615,0.214,1.229,0.323,1.844c-0.2,1.482-0.078,2.967-0.059,4.453  c-0.045,0.309-0.113,0.615-0.129,0.926c-0.018,0.334-0.047,0.678-0.463,0.674c-0.415-0.006-0.443-0.396-0.475-0.693  c-0.067-0.615-0.088-1.236-0.129-1.854c0.146-1.215,0.222-2.428,0.031-3.645c0.068-0.578,0.141-1.158,0.201-1.736  C22.997,58.336,23.02,58.102,23.33,58.119z M23.974,70.869c-0.322-0.275-0.414-0.594-0.377-1.012  C23.896,70.15,24.057,70.443,23.974,70.869z M22.919,68.188c-0.074,0.076-0.177,0.066-0.211-0.025  c-0.064-0.172-0.02-0.344,0.109-0.469c0.033-0.033,0.139,0.014,0.213,0.021C23.086,67.896,23.041,68.055,22.919,68.188z   M22.235,38.384c-0.061,0.374-0.239,0.687-0.533,0.914c-0.303,0.235-0.371,0.024-0.387-0.241  C21.622,38.833,21.929,38.61,22.235,38.384z M22.171,41.875c-0.207,0.083-0.411-0.097-0.534-0.302  c0.173-0.053,0.345-0.105,0.516-0.158C22.201,41.571,22.384,41.788,22.171,41.875z M21.453,40.232  c0.378-0.146,0.4,0.099,0.402,0.367c-0.025,0.132-0.11,0.196-0.245,0.202c-0.131-0.086-0.266-0.174-0.398-0.259  C21.292,40.438,21.37,40.334,21.453,40.232z M18.097,37.981c0.13-0.224,0.306-0.423,0.463-0.633c0.152-0.065,0.32-0.203,0.451-0.172  c0.118,0.025,0.043,0.225-0.033,0.33c-0.201,0.287-0.413,0.564-0.622,0.85C18.034,38.395,17.944,38.249,18.097,37.981z   M18.74,44.493c2.13-0.967,3.633,0.293,4.085,1.73c0.457,1.452-0.55,3.324-2.105,3.828c-1.451,0.47-3.367-0.577-3.994-2.184  C16.205,46.538,17.071,45.088,18.74,44.493z M22.282,63.496c-0.039,0.721-0.154,1.447-0.096,2.16  c0.046,0.578-0.276,0.912-0.466,1.428c-0.698-0.656-0.47-1.377-0.381-2.008c0.221-1.592,0.104-3.195,0.184-4.789  c0.022-0.492,0.05-1.01-0.178-1.486c0.094-0.199,0.116-0.404,0.054-0.619c0.463-0.402,0.824-0.453,0.874,0.297  c0.032,0.449-0.002,0.904-0.007,1.355C22.132,61.055,22.153,62.273,22.282,63.496z M19.272,66.93  c0.113-1.277,0.25-2.555,0.346-3.832c0.131-1.732,0.238-3.467,0.201-5.207c0.491-0.236,0.859-0.23,0.908,0.447  c0.017,0.217,0.061,0.434,0.094,0.652c0.116,2.475-0.081,4.936-0.285,7.398c-0.018,0.23-0.018,0.459-0.052,0.684  c-0.063,0.391-0.329,0.521-0.694,0.504C19.366,67.559,19.24,67.301,19.272,66.93z M19.72,73.709c-0.002-0.08-0.066-0.002-0.16-0.045  c-0.114-0.051-0.252-0.131-0.297-0.232c-0.063-0.146,0.053-0.248,0.208-0.213C19.61,73.25,19.704,73.357,19.72,73.709z   M20.806,53.449c0.128-0.326,0.333-0.141,0.484,0.035c-0.143,0.477,0.024,1.072-0.539,1.385  C20.626,54.391,20.629,53.9,20.806,53.449z M20.784,55.762l0.002-0.006c0.295-0.154,0.451-0.645,0.91-0.377  c0.131,0.076,0.201,0.229,0.116,0.348C21.495,56.176,21.139,56.076,20.784,55.762z M19.093,53.729  c0.031,0.111-0.021,0.246-0.033,0.338c-0.119,0.094-0.223,0.09-0.244-0.006c-0.028-0.119-0.039-0.275,0.015-0.379  C18.92,53.51,19.056,53.58,19.093,53.729z M15.37,46.899c0.043-0.008,0.115,0.109,0.175,0.168c0.021,0.236-0.007,0.469-0.249,0.57  c-0.151,0.062-0.244-0.074-0.234-0.217C15.075,47.2,15.087,46.954,15.37,46.899z M14.853,44.741c0.039-0.037,0.148,0,0.229,0.006  c-0.021,0.08-0.021,0.176-0.068,0.236c-0.066,0.086-0.183,0.082-0.219-0.012C14.771,44.907,14.801,44.786,14.853,44.741z   M14.698,48.559c0.322,0.162,0.735,0.238,0.855,0.467c0.114,0.215-0.092,0.584-0.417,0.772  C14.696,49.532,14.618,49.129,14.698,48.559z M14.034,52.971c0.029-0.016,0.115,0.078,0.175,0.123  c0.019,0.17,0.03,0.348-0.151,0.438c-0.031,0.016-0.158-0.07-0.168-0.121C13.862,53.244,13.853,53.062,14.034,52.971z   M13.745,43.624c0.073,0.519-0.159,0.836-0.66,1.157C13.041,44.133,13.44,43.902,13.745,43.624z M13.435,52.859  c-0.014,0.113-0.061,0.223-0.098,0.334c-0.064-0.031-0.185-0.061-0.186-0.086c0.004-0.117,0.045-0.232,0.074-0.354  C13.315,52.799,13.439,52.836,13.435,52.859z M12.85,43.372c0.272,0.493-0.111,0.673-0.509,1.032  C12.286,43.811,12.513,43.577,12.85,43.372z M12.142,49.086c-0.078,0.28-0.228,0.479-0.566,0.397c0.268-0.542,0.088-1.242,0.598-1.7  c0.102-0.326,0.203-0.652,0.306-0.979c0.116-0.051,0.307-0.115,0.3,0.055c-0.016,0.41-0.206,0.745-0.599,0.932  C12.268,48.227,12.259,48.66,12.142,49.086z M11.968,52.549c-0.114,0-0.23,0.037-0.268-0.004c-0.102-0.109-0.08-0.256,0-0.375  c0.093-0.135,0.238-0.154,0.304,0.002C12.046,52.275,11.983,52.426,11.968,52.549z M12.429,46.216  c-0.211,0.22-0.395,0.519-0.772,0.288c0.126-0.238,0.255-0.475,0.382-0.711C12.24,45.869,12.35,46.03,12.429,46.216z M10.563,45.144  c0.188,0.01,0.382,0.019,0.569,0.03c-0.162,0.414-0.287,0.851-0.708,1.303C10.204,45.915,10.515,45.539,10.563,45.144z   M10.095,43.444c0.002-0.013,0.065-0.015,0.102-0.021c-0.002,0.067-0.002,0.134-0.004,0.2c-0.037,0.007-0.072,0.013-0.107,0.021  C10.087,43.577,10.083,43.508,10.095,43.444z M9.904,47.213c0.262,0.18,0.524,0.359,0.786,0.539  c0.037,0.213,0.115,0.461-0.108,0.594c-0.249,0.148-0.393-0.082-0.519-0.252C9.868,47.833,9.894,47.519,9.904,47.213z M8.397,50.627  c0.027-0.021,0.17,0.035,0.188,0.082c0.064,0.17,0.049,0.342-0.102,0.475c-0.067-0.027-0.18-0.043-0.191-0.088  C8.239,50.928,8.244,50.746,8.397,50.627z M9.011,61.852c-0.197,1.432-0.258,2.883-0.226,4.332  c-0.218,0.227-0.482,0.604-0.692,0.055c-0.143-0.367-0.117-0.811-0.14-1.221c-0.11-2.021-0.091-4.037,0.071-6.055  c0.129-1.6,0.192-3.203,0.28-4.807c0.017-0.268-0.058-0.605,0.35-0.604c0.327,0.002,0.486,0.266,0.5,0.559  c0.05,1.092,0.074,2.186,0.11,3.277C9.159,58.875,9.218,60.367,9.011,61.852z M9.178,51.871c-0.147,0.127-0.25-0.016-0.244-0.152  c0.001-0.115,0.062-0.254,0.144-0.34c0.064-0.064,0.158,0.01,0.195,0.168C9.251,51.629,9.26,51.803,9.178,51.871z M9.296,48.649  c-0.417,0.131-0.687-0.107-0.826-0.475c-0.063-0.172-0.02-0.433,0.148-0.477c0.401-0.103,0.625,0.215,0.848,0.367  C9.489,48.362,9.475,48.593,9.296,48.649z M10.725,65.139c-0.22,0.504-0.149,1.053-0.231,1.574c-0.102,0.66-0.457,0.529-0.858,0.312  c-0.044-0.223-0.139-0.447-0.128-0.668c0.093-1.865,0.016-3.74,0.33-5.596c0.182-1.078,0.21-2.176,0.076-3.27  c-0.043-0.578,0.131-1.143,0.04-1.732c-0.175-1.119-0.04-1.211,1.045-0.826c0,0,0,0,0.001,0.002  C10.909,58.336,10.815,61.738,10.725,65.139z M11.111,50.479c-0.409,0.058-0.468-0.19-0.378-0.484  c0.084-0.28,0.263-0.338,0.455-0.062C11.16,50.117,11.136,50.296,11.111,50.479z M10.823,44.165  c0.082-1.088,0.279-1.361,1.186-1.615C11.57,43.057,11.44,43.788,10.823,44.165z M12.521,60.654  c-0.06,2.006-0.413,3.994-0.315,6.008c-0.288,0.27,0.119,0.996-0.457,0.963c-0.576-0.029-0.478-0.664-0.516-1.094  c-0.025-0.311-0.002-0.627,0-0.938c0.32-3.299,0.329-6.609,0.379-9.918l-0.015-0.125c0.757-0.391,0.876-0.324,1.064,0.604  C12.433,57.648,12.565,59.156,12.521,60.654z M12.563,54.227c0.256-0.111,0.455-0.061,0.581,0.203  c-0.099,0.133-0.126,0.393-0.331,0.348C12.546,54.717,12.614,54.428,12.563,54.227z M13.976,65.971  c-0.124,0.521-0.18,1.074-0.392,1.559c-0.317,0.734-0.563,0.322-0.759-0.119c0.117-2.057,0.274-4.113,0.344-6.174  c0.049-1.545,0.308-3.102,0-4.65c0.773-0.51,0.97-0.385,1.11,0.719C14.179,60.195,14.077,63.082,13.976,65.971z M15.489,64.609  c-0.083,0.908-0.122,1.822-0.199,2.734c-0.023,0.258-0.028,0.604-0.428,0.568c-0.289-0.023-0.301-0.301-0.342-0.521  c-0.064-0.352-0.297-0.688-0.096-1.066c0.592-2.951,0.529-5.934,0.431-8.916c0.063-0.219,0.099-0.518,0.354-0.533  c0.355-0.021,0.414,0.26,0.409,0.57C15.577,59.834,15.708,62.223,15.489,64.609z M15.603,43.59c0.191-0.818,0.68-1.188,1.055-1.64  C16.62,42.611,16.326,43.114,15.603,43.59z M16.981,67.551c-0.018,0.223-0.048,0.348-0.279,0.35  c-0.211,0.002-0.319-0.117-0.379-0.316c-0.215-0.713-0.293-1.451-0.214-2.176c0.251-2.328,0.177-4.66,0.228-6.994  c0.006-0.414-0.197-1.064,0.5-1.064c0.689,0,0.444,0.654,0.503,1.062c0.047,0.312,0.048,0.633,0.069,0.949  c-0.225,2.189-0.237,4.387-0.189,6.582C17.136,66.479,17.025,67.014,16.981,67.551z M17.438,72.465  c-0.081-0.01-0.162-0.172-0.203-0.281c-0.02-0.053,0.041-0.197,0.074-0.201c0.146-0.01,0.201,0.111,0.25,0.23  C17.574,72.328,17.612,72.488,17.438,72.465z M18.659,66.473c-0.031,0.453-0.195,0.863-0.428,1.43  c-0.653-0.699-0.123-1.484-0.379-2.104c-0.054-1.916,0.258-3.824,0.099-5.742c0.027-0.592,0.04-1.186,0.085-1.775  c0.021-0.303-0.008-0.688,0.491-0.641c0.399,0.037,0.522,0.293,0.532,0.658c0.013,0.5,0.062,1.002,0.059,1.502  C19.103,62.031,18.809,64.248,18.659,66.473z M19.195,76.545c0.407-0.072,0.758,0.033,1.037,0.346  C19.819,76.971,19.478,76.852,19.195,76.545z M20.466,70.492c0.251-0.064,0.525,0.084,0.4,0.35c-0.279,0.586,0.479,0.834,0.364,1.41  c-0.52-0.289-0.747-0.764-0.983-1.223C20.134,70.805,20.202,70.561,20.466,70.492z M23.986,82.176  c0.354,0.26,0.515,0.637,0.624,1.045C24.275,82.949,24.107,82.574,23.986,82.176z M24.744,83.443  c0.312,0.281,0.626,0.564,0.937,0.848C25.169,84.23,24.751,84.061,24.744,83.443z M33.085,84.297  c-0.15,0.615-0.449,0.885-1.131,0.945c-1.861,0.168-3.55-0.383-5.156-1.18c-1.106-0.549-1.779-1.611-2.25-2.705  c-0.676-1.557-1.189-3.182-1.771-4.777c-0.451-0.725-0.702-1.568-1.498-2.078c-0.289-0.186-0.48-0.633-0.431-1.326  c1.14,1.223,2.005,2.363,2.552,3.732c0.723,1.027,1.167,2.189,1.598,3.35c0.833,2.244,2.632,3.188,4.799,3.648  c0.46,0.1,0.909,0.006,1.344-0.188c0.82-0.373,1.092-0.877,0.879-1.758c-0.508-2.1-1.698-3.744-3.391-5.043  c-0.758-0.584-1.516-1.162-2.146-2.283c1.966,1.133,3.637,2.176,4.768,3.875c0.896,1.348,1.572,2.799,1.812,4.424  C33.128,83.391,33.192,83.832,33.085,84.297z M26.64,78.09c0.529,0.062,0.581,0.375,0.668,0.764  C26.792,78.775,26.708,78.482,26.64,78.09z M27.142,80.908c-0.207,0.094-0.309-0.072-0.407-0.201  c-0.044-0.057-0.058-0.217-0.034-0.229c0.211-0.105,0.281,0.102,0.4,0.199C27.116,80.76,27.159,80.9,27.142,80.908z M33.496,73.039  c-0.315-0.459-0.396-0.943-0.154-1.652C33.663,72.039,33.66,72.527,33.496,73.039z M33.567,70.398  c-0.305,0.014-0.684,0.076-0.781-0.33c-0.081-0.338-0.154-0.705,0.049-1.045c0.373-0.01,0.102,0.705,0.598,0.531  c0.374-0.131,0.492,0.041,0.494,0.375C33.929,70.174,33.847,70.389,33.567,70.398z M33.926,49.286  c-0.051,0.08-0.149,0.067-0.185-0.025c-0.024-0.062,0.007-0.148,0.013-0.225c0.065,0.008,0.132,0.016,0.198,0.023  C33.944,49.135,33.96,49.227,33.926,49.286z M34.159,57.49c-0.014-0.035-0.03-0.082-0.021-0.119  c0.026-0.107,0.103-0.127,0.167-0.035c0.038,0.059,0.023,0.152,0.033,0.229C34.261,57.621,34.199,57.6,34.159,57.49z M34.194,34.362  c-0.021-0.176,0.018-0.351,0.225-0.396c0.033-0.007,0.096,0.11,0.146,0.17c-0.013,0.168,0.005,0.362-0.22,0.395  C34.3,34.538,34.201,34.426,34.194,34.362z M34.589,76.379c-0.302-0.4-0.275-0.621-0.181-0.84c0.047-0.109,0.152-0.148,0.219-0.059  C34.82,75.734,34.712,75.986,34.589,76.379z M35.564,76.031c-0.636-0.773-0.315-1.41-0.237-2.023  C35.523,74.6,35.675,75.189,35.564,76.031z M35.704,34.752c-0.078-0.013-0.202-0.002-0.22-0.039  c-0.097-0.212-0.092-0.438,0.048-0.625c0.095-0.129,0.244-0.111,0.295,0.045C35.901,34.35,35.853,34.567,35.704,34.752z   M59.952,70.824c0.063,0.055,0.157,0.1,0.176,0.166c0.022,0.066-0.029,0.154-0.05,0.234c-0.062-0.055-0.158-0.1-0.182-0.166  C59.878,70.992,59.932,70.904,59.952,70.824z M58.355,65.85c0.419,0.369,0.419,0.723,0.21,1.24  C58.212,66.689,58.162,66.346,58.355,65.85z M57.223,59.572c0.087-0.137,0.225-0.127,0.292,0.021  c0.073,0.162,0.062,0.34-0.034,0.502c-0.075,0.066-0.151,0.061-0.212-0.033C57.166,59.908,57.123,59.734,57.223,59.572z   M57.154,70.457c0.297,0.373,0.477,0.615,0.213,0.953C57.021,71.211,57.122,70.904,57.154,70.457z M55.955,58.002  c0.434,0.553,0.338,1.232,0.495,1.857C55.834,59.152,55.834,59.152,55.955,58.002z M55.873,54.609  c0.476,0.705,0.477,1.49,0.419,2.283C55.872,56.178,55.753,55.414,55.873,54.609z M56.251,72.428  c0.529,0.367,0.571,0.73,0.448,1.336C56.244,73.355,56.23,72.988,56.251,72.428z M56.53,67.48c0.48,0.328,0.29,0.74,0.255,1.205  C56.411,68.309,56.341,67.955,56.53,67.48z M56.654,65.6c-0.065-0.193-0.21-0.434,0.089-0.621c0.273,0.346,0.267,0.754,0.314,1.203  C56.628,66.16,56.723,65.803,56.654,65.6z M56.224,49.204c0.435,0.566,0.578,0.956,0.593,1.701  C56.405,50.32,56.302,49.915,56.224,49.204z M56.497,47.596c-0.602-0.062-0.648-0.514-0.759-0.939  C56.287,46.985,56.287,46.985,56.497,47.596z M55.483,62.295c-0.32-0.348-0.343-0.641-0.016-1.002  C55.701,61.637,55.688,61.932,55.483,62.295z M55.567,69.209c0,0.135,0.002,0.273-0.161,0.312c-0.019,0.004-0.096-0.133-0.097-0.205  c-0.002-0.082,0.032-0.191,0.09-0.236C55.484,69.021,55.558,69.09,55.567,69.209z M55.538,51.75c0.19,0.787,0.331,1.24,0.172,1.773  C55.226,52.934,55.226,52.934,55.538,51.75z M55.699,50.502c-0.545-0.282-0.486-0.587-0.57-0.942  C55.651,49.763,55.449,50.12,55.699,50.502z M54.467,69.779c0.483,0.314,0.372,0.734,0.331,1.207  C54.396,70.447,54.396,70.447,54.467,69.779z M54.393,78.547c-0.077,0.057-0.157,0.047-0.214-0.047  c-0.093-0.156-0.172-0.322-0.044-0.488c0.023-0.027,0.181-0.006,0.216,0.037C54.463,78.197,54.491,78.371,54.393,78.547z   M54.788,65.588c-0.305-0.641-0.344-1.021-0.274-1.436C54.833,64.596,54.833,64.596,54.788,65.588z M54.579,47.233  c-0.599-0.417-0.898-0.972-0.939-1.867C54.399,45.907,54.491,46.575,54.579,47.233z M54.211,53.455  c-0.413-0.504-0.256-1.102-0.265-1.67C54.365,52.287,54.385,52.855,54.211,53.455z M53.666,57.822  c0.876,0.168,0.468,0.928,0.627,1.414c0.096,0.285,0.332,0.734-0.278,0.84c-0.371-0.188-0.478-0.391-0.033-0.623  c-0.057-0.156-0.114-0.312-0.168-0.467C53.278,58.658,53.729,58.209,53.666,57.822z M54.018,73.721  c-0.395-0.359-0.534-0.803-0.537-1.51C54.203,72.672,54.153,73.182,54.018,73.721z M53.184,50.269  c-0.52-0.438-0.594-0.796-0.646-1.286C53.024,49.302,52.94,49.724,53.184,50.269z M51.225,40.415  c0.124-0.09,0.259-0.045,0.343,0.076c0.079,0.113,0.101,0.242-0.009,0.357c-0.14,0.061-0.26,0.016-0.352-0.088  C51.11,40.647,51.1,40.506,51.225,40.415z M49.647,38.438c0.077,0.039,0.165,0.066,0.223,0.124c0.086,0.085,0.065,0.189-0.035,0.197  c-0.073,0.003-0.163-0.062-0.227-0.118C49.519,38.559,49.541,38.481,49.647,38.438z M48.382,37.395  c0.062-0.016,0.144,0.039,0.217,0.063c0.064,0.085,0.062,0.179-0.032,0.203c-0.062,0.018-0.157-0.027-0.214-0.072  C48.268,37.522,48.282,37.42,48.382,37.395z M48.247,38.969c0.057,0.053,0.114,0.104,0.17,0.158  c-0.015,0.071-0.03,0.143-0.047,0.217c-0.058-0.051-0.142-0.094-0.162-0.158C48.187,39.126,48.23,39.043,48.247,38.969z   M47.873,73.217c-0.286-0.174-0.297-0.416-0.175-0.684c0.046-0.1,0.166-0.117,0.225-0.033C48.083,72.74,48.104,72.988,47.873,73.217  z M47.152,69.07c0.376,0.449,0.288,0.85,0.305,1.246C46.788,69.963,46.788,69.963,47.152,69.07z M47.172,72.605  c0.019,0.066-0.032,0.156-0.052,0.232c-0.059-0.057-0.145-0.104-0.167-0.174c-0.019-0.064,0.032-0.152,0.052-0.23  C47.064,72.49,47.152,72.537,47.172,72.605z M47.191,59.314c-0.347-0.588-0.341-0.939-0.055-1.385  C47.496,58.367,47.476,58.729,47.191,59.314z M47.549,60.9c0.048-0.01,0.115,0.109,0.175,0.168c0.001,0.143-0.023,0.285-0.175,0.326  c-0.039,0.01-0.145-0.107-0.166-0.184C47.341,61.068,47.388,60.93,47.549,60.9z M47.038,54.121  c-0.318-1.094-0.515-1.943-0.541-2.961C47.092,52.066,47.213,52.695,47.038,54.121z M46.96,63.27  c0.34,0.717,0.346,0.719-0.021,1.682C46.733,64.314,46.777,63.83,46.96,63.27z M47.444,75.527c0.239-0.002,0.258,0.207,0.259,0.391  c0.004,0.139-0.022,0.271-0.168,0.34c-0.21-0.062-0.248-0.244-0.272-0.422C47.244,75.693,47.28,75.527,47.444,75.527z   M47.797,49.353c0.307,0.726,0.002,1.038-0.656,1.344C47.111,49.995,47.401,49.709,47.797,49.353z M46.915,45.991  c0.023-0.031,0.187-0.021,0.224,0.023c0.255,0.285,0.135,0.564,0.006,0.865C46.761,46.625,46.679,46.335,46.915,45.991z   M46.245,40.124c0.409,0.189,0.372,0.467,0.475,0.75C46.265,40.797,46.307,40.504,46.245,40.124z M46.203,37.249  c0.2-0.031,0.31,0.146,0.353,0.324c0.018,0.072-0.014,0.211-0.064,0.236c-0.232,0.115-0.307-0.064-0.379-0.234  C46.089,37.448,46.046,37.272,46.203,37.249z M46.308,58.152c0.238,0.42,0.141,0.688-0.059,1.125  C46.035,58.807,45.937,58.52,46.308,58.152z M45.875,67.141c-0.282-0.406-0.292-0.736,0.009-1.205  C46.175,66.404,46.191,66.738,45.875,67.141z M45.881,55.771c0.11,0.193,0.155,0.412,0.028,0.615  c-0.031,0.049-0.185,0.092-0.213,0.064c-0.223-0.207-0.131-0.475-0.102-0.727c0.006-0.033,0.06-0.061,0.09-0.092  C45.753,55.676,45.845,55.707,45.881,55.771z M45.681,39.836c-0.806-0.572-1-1.107-1.119-1.965  C45.247,38.428,45.388,38.994,45.681,39.836z M44.688,51.348c-0.194-0.121-0.006-0.4,0.143-0.574  c0.034-0.513,0.069-1.027,0.117-1.708c0.538,0.706,0.502,1.303,0.338,1.919C45.147,51.219,44.958,51.514,44.688,51.348z   M45.069,53.682c-0.023,0.117-0.121,0.123-0.229,0.008c-0.154-0.375-0.258-0.783-0.092-1.363  C45.134,52.818,45.157,53.24,45.069,53.682z M45.003,41.264c-0.238,0.07-0.289-0.121-0.316-0.289  c-0.013-0.066,0.062-0.211,0.094-0.209c0.155,0,0.225,0.126,0.268,0.273C45.036,41.11,45.039,41.253,45.003,41.264z M45.062,46.139  c0.061,0.059,0.122,0.117,0.182,0.176c0.002,0.081,0.033,0.221,0.002,0.236c-0.166,0.086-0.199-0.074-0.228-0.176  C44.999,46.307,45.044,46.218,45.062,46.139z M44.083,59.779c-0.338-0.912-0.338-0.912-0.015-2.207  C44.294,58.447,44.761,59.102,44.083,59.779z M44.202,62.1c-0.199-0.668-0.201-1.057-0.119-1.533  C44.392,61.15,44.392,61.15,44.202,62.1z M44.11,38.774c0.066,0.039,0.094,0.141,0.139,0.214c0.004,0.12-0.058,0.189-0.144,0.138  c-0.065-0.041-0.117-0.136-0.134-0.217C43.948,38.795,44.026,38.723,44.11,38.774z M43.741,45.79  c0.254,0.154,0.346,0.36,0.236,0.646C43.721,46.282,43.635,46.073,43.741,45.79z M41.809,34.436c0.229-0.061,0.245,0.186,0.376,0.25  c-0.002,0.105,0.016,0.248-0.007,0.252c-0.224,0.066-0.296-0.115-0.366-0.27C41.78,34.602,41.788,34.442,41.809,34.436z   M42.866,36.998c-0.912-0.406-1.663-1.425-1.789-2.38C42.035,35.221,42.187,36.303,42.866,36.998z M40.628,50.415  c0.14-0.021,0.207,0.132,0.24,0.265c0.01,0.17,0.055,0.375-0.167,0.42c-0.06,0.012-0.194-0.162-0.229-0.27  C40.417,50.67,40.388,50.451,40.628,50.415z M40.302,44.098c-0.178-0.207-0.263-0.452-0.226-0.729  c0.005-0.031,0.048-0.057,0.091-0.107c0.081,0.105,0.182,0.195,0.227,0.309c0.061,0.157,0.1,0.332,0.104,0.496  C40.499,44.165,40.378,44.19,40.302,44.098z M40.534,45.831c0.475,0.842,0.674,1.426,0.7,2.121  C40.49,47.36,40.49,47.36,40.534,45.831z M41.14,36.79c0.551,0.441,0.879,0.667,1.16,0.94c0.133,0.13,0.077,0.347-0.064,0.479  c-0.162,0.154-0.324,0.076-0.46-0.064C41.492,37.853,41.306,37.511,41.14,36.79z M41.45,51.039  c-0.287-0.598-0.584-1.189-0.537-2.185C41.554,49.7,41.515,50.374,41.45,51.039z M41.528,54.57c-0.381-0.746-0.212-1.559-0.276-2.34  C41.575,52.98,41.698,53.756,41.528,54.57z M41.321,59.855c-0.099-0.492-0.211-0.848,0.227-1.314  C41.585,59.07,41.726,59.432,41.321,59.855z M41.356,45.881c0.404,0.534,0.68,1.108,0.648,2.061  C41.391,47.201,41.104,46.635,41.356,45.881z M42.005,43.732c-0.527-0.272-0.607-0.569-0.443-1.047  C42.015,42.881,42.079,43.202,42.005,43.732z M41.921,40.204c-0.1-0.027-0.188-0.174-0.234-0.287  c-0.047-0.111-0.062-0.261,0.13-0.307c0.192,0.03,0.292,0.165,0.312,0.352C42.142,40.1,42.062,40.246,41.921,40.204z M42.179,50.252  c0.151,0.001,0.193,0.135,0.234,0.255c0.041,0.127,0.055,0.285-0.101,0.332c-0.157,0.047-0.235-0.084-0.249-0.229  C42.05,50.482,42.028,50.344,42.179,50.252z M42.138,45.997c0.478,0.373,0.301,0.973,0.565,1.417  C42.18,47.059,42.085,46.553,42.138,45.997z M42.65,52.375c0.438,0.373,0.419,0.84,0.334,1.389  C42.349,53.357,42.679,52.83,42.65,52.375z M42.673,49.049c0.432,0.528,0.515,0.908,0.47,1.525  C42.728,50.097,42.612,49.726,42.673,49.049z M40.831,41.261c-0.324-0.199-0.438-0.452-0.292-0.816  C40.868,40.641,40.971,40.899,40.831,41.261z M40.7,36.043c-0.686-0.371-0.771-0.799-0.965-1.337  C40.509,34.89,40.575,35.375,40.7,36.043z M38.095,34.616c0.013-0.008,0.162,0.171,0.217,0.279c0.052,0.104,0.07,0.223,0.102,0.338  c0.007,0.004,0.014,0.008,0.018,0.014c0.01,0.014,0.016,0.03,0.023,0.047c0.529,0.435,0.719,1.031,0.896,1.912  c-0.842-0.582-0.602-1.371-0.896-1.912c-0.012-0.01-0.021-0.021-0.034-0.03c-0.003-0.011-0.005-0.02-0.007-0.03  c-0.101-0.068-0.213-0.125-0.288-0.213C38.029,34.9,37.864,34.756,38.095,34.616z M39.706,48.901  c-0.606-0.596-0.61-0.595-0.588-1.559C39.302,47.828,39.485,48.315,39.706,48.901z M37.563,47.839  c0.438,0.667,0.519,1.146,0.414,1.868C37.409,49.128,37.444,48.626,37.563,47.839z M37.335,42.348  c-0.053-0.129-0.039-0.273,0.115-0.32c0.047-0.014,0.125,0.086,0.189,0.133c0.016,0.138,0,0.274-0.133,0.338  C37.477,42.512,37.361,42.413,37.335,42.348z M37.743,56.234c0.039-0.1,0.189-0.109,0.223-0.014c0.12,0.336,0.158,0.678-0.1,0.992  C37.558,56.904,37.614,56.57,37.743,56.234z M37.933,47.056c0.747,0.425,0.476,1.19,0.894,1.72  c-0.138,0.047-0.272,0.092-0.409,0.139C38.257,48.295,38.094,47.676,37.933,47.056z M38.124,44.598  c-0.025-0.061,0.029-0.156,0.047-0.238c0.303,0.107,0.392,0.5,0.266,0.582C38.165,45.118,38.19,44.754,38.124,44.598z   M37.504,36.251c0.138,0.054,0.188,0.06,0.22,0.085c0.215,0.182,0.416,0.376,0.311,0.691c-0.02,0.057-0.164,0.131-0.213,0.109  c-0.288-0.127-0.341-0.406-0.38-0.682C37.434,36.417,37.468,36.37,37.504,36.251z M37.415,39.405  c-0.666-0.657-0.629-1.56-0.846-2.373C37.101,37.735,37.387,38.526,37.415,39.405z M36.606,50.45  c0.408,0.482,0.283,1.054,0.453,1.529c0.001,0.002,0.002,0.004,0.005,0.004c0.004-0.002,0.003-0.004,0.009-0.004  c0.139-0.275,0.062-0.627,0.311-0.867c0.16,0.582,0.16,0.586-0.311,0.867c-0.004,0.006-0.004,0.014-0.009,0.02  c-0.002-0.006-0.003-0.014-0.005-0.02C36.399,51.535,36.397,51.531,36.606,50.45z M36.519,53.213  c0.354,0.383,0.215,0.77,0.117,1.121C36.355,53.979,36.3,53.633,36.519,53.213z M36.722,71.816c-0.338-0.248-0.701-0.334-0.525-0.75  c0.027-0.061,0.158-0.143,0.203-0.125C36.741,71.084,36.778,71.375,36.722,71.816z M37.095,60.971  c0.143,0.578,0.133,0.969-0.168,1.459C36.614,61.883,36.607,61.492,37.095,60.971z M37.169,66.119  c-0.043-0.129-0.011-0.268,0.124-0.328c0.096-0.045,0.161,0.021,0.183,0.287c0.007-0.008-0.068,0.096-0.143,0.199  C37.276,66.225,37.188,66.184,37.169,66.119z M37.633,78.717c-0.315,0.105-0.347-0.049-0.197-1.158  C37.765,78.041,37.743,78.375,37.633,78.717z M37.679,74.996c-0.301-0.439-0.225-0.848,0.055-1.428  C37.877,74.168,37.96,74.584,37.679,74.996z M37.814,70.092c-0.064-0.035-0.17-0.061-0.183-0.109  c-0.018-0.07,0.037-0.156,0.059-0.232c0.065,0.037,0.17,0.062,0.184,0.111C37.894,69.93,37.839,70.014,37.814,70.092z   M37.868,61.783c-0.07-0.012-0.182-0.004-0.204-0.045c-0.029-0.057-0.024-0.168,0.017-0.221c0.103-0.131,0.219-0.098,0.268,0.049  C37.968,61.623,37.896,61.709,37.868,61.783z M38.146,59.473c-0.098,0.059-0.173,0.033-0.184-0.082  c-0.012-0.086,0.002-0.184,0.031-0.264c0.039-0.115,0.134-0.127,0.194-0.025C38.261,59.227,38.24,59.359,38.146,59.473z   M38.522,74.928c-0.165-0.051-0.176-0.189-0.162-0.316c0.016-0.127,0.041-0.316,0.123-0.355c0.154-0.074,0.217,0.088,0.227,0.219  C38.722,74.65,38.708,74.828,38.522,74.928z M38.627,62.234c-0.229-0.602-0.23-0.982,0.002-1.365  C38.917,61.328,38.917,61.328,38.627,62.234z M39.179,72.885c-0.385-0.641-0.385-0.641,0-2.186  C39.407,71.418,39.354,72.119,39.179,72.885z M39.64,58.43c0.191,0.443,0.236,0.758-0.055,1.158  C39.376,59.205,39.426,58.9,39.64,58.43z M39.862,63.945c-0.231-0.121-0.289-0.338-0.291-0.559c0.003-0.111,0.07-0.291,0.148-0.318  c0.232-0.082,0.3,0.109,0.295,0.289C40.013,63.559,40.127,63.807,39.862,63.945z M39.468,46.322  c0.655,0.389,0.655,0.389,0.767,2.028C39.811,47.577,39.544,47.015,39.468,46.322z M40.34,58.039  c0.558,0.641,0.499,1.066,0.251,1.658C40.108,59.148,40.228,58.703,40.34,58.039z M40.88,66.936  c-0.008,0.105-0.137,0.123-0.205,0.027c-0.165-0.24-0.109-0.506-0.049-0.768c0.009-0.039,0.035-0.078,0.096-0.201  c0.09,0.102,0.141,0.133,0.143,0.162C40.878,66.416,40.897,66.678,40.88,66.936z M40.801,62.336  c-0.356-0.529-0.293-0.912-0.13-1.312C41.009,61.453,41.009,61.453,40.801,62.336z M41.368,68.869  c-0.15,0.061-0.236-0.057-0.256-0.191c-0.023-0.137,0.029-0.27,0.182-0.289c0.055-0.008,0.123,0.096,0.186,0.15  C41.509,68.67,41.503,68.814,41.368,68.869z M41.839,73.66c-0.535-0.41-0.287-0.709-0.191-1.104  C42.067,72.951,41.884,73.254,41.839,73.66z M41.745,65.881c-0.021,0.256,0.029,0.535-0.232,0.738  c-0.344-0.389-0.123-0.729,0.076-1.066c-0.224-0.496-0.074-0.92,0.193-1.506C42.226,64.807,41.858,65.336,41.745,65.881z   M41.94,61.666c-0.042-0.514,0.125-1.041,0.199-1.564c-0.01-0.043-0.021-0.086-0.027-0.131c-0.043-0.309-0.162-0.635,0.157-0.869  c0.052-0.039,0.208-0.031,0.238,0.014c0.216,0.301,0.077,0.6-0.036,0.898c-0.121,0.578-0.135,1.154,0.051,1.721  c0.006-0.002,0.012-0.008,0.014-0.01l-0.012,0.016c0-0.002,0-0.002-0.002-0.006C42.3,61.92,41.989,62.275,41.94,61.666z   M42.325,66.234c0.039-0.045,0.223-0.049,0.238-0.02c0.172,0.322,0.094,0.602-0.259,0.9C42.131,66.727,42.127,66.463,42.325,66.234z   M42.583,68.631c0.186,0.58,0.488,1.174,0.053,1.98C42.386,69.842,42.401,69.246,42.583,68.631z M42.735,75.799  c-0.139,0.061-0.242-0.066-0.266-0.203c-0.035-0.217-0.053-0.471,0.176-0.584c0.119-0.061,0.215,0.098,0.268,0.223  C42.968,75.459,42.991,75.689,42.735,75.799z M43.046,61.85c-0.213,0.293-0.363,0.035-0.508-0.125  c0.158-0.164,0.09-0.611,0.463-0.473C43.214,61.33,43.173,61.676,43.046,61.85z M42.895,42.137  c-0.036-0.109-0.026-0.307,0.044-0.362c0.186-0.146,0.314,0,0.436,0.207c-0.016,0.087,0.004,0.272-0.07,0.323  C43.126,42.432,42.956,42.32,42.895,42.137z M43.401,69.01c-0.049,0.072-0.158,0.027-0.198-0.076  c-0.053-0.135-0.038-0.27,0.081-0.365c0.084-0.066,0.164-0.033,0.227,0.104C43.485,68.766,43.469,68.904,43.401,69.01z   M43.744,50.013c0.126-0.151,0.217,0.004,0.316,0.153c-0.009,0.096,0.026,0.268-0.042,0.345c-0.115,0.129-0.262,0.039-0.298-0.108  C43.69,50.28,43.673,50.094,43.744,50.013z M44.056,79.871c-0.461-0.254-0.303-0.641-0.306-1.172  C44.105,79.129,44.241,79.42,44.056,79.871z M44.39,75.732c-0.059-0.031-0.174-0.062-0.184-0.113  c-0.023-0.111,0.006-0.236,0.016-0.354c0.066,0.041,0.16,0.066,0.195,0.125C44.482,75.5,44.522,75.631,44.39,75.732z M44.836,70.898  c-0.323-0.865-0.573-1.73-0.05-2.926C45.095,69.146,45.083,70.02,44.836,70.898z M45.089,65.029  c-0.072-0.578-0.254-1.15,0.117-1.875C45.583,63.936,45.204,64.492,45.089,65.029z M45.298,60.57  c0.037-0.115,0.132-0.115,0.236,0.012c-0.004,0.385,0.249,0.822-0.168,1.322C45.073,61.404,45.159,60.986,45.298,60.57z   M45.718,73.756c-0.273-0.545-0.226-0.93,0.035-1.559C46.021,72.844,45.925,73.217,45.718,73.756z M46.541,77.926  c-0.001-0.004-0.003-0.006-0.004-0.01c-0.161,0.074-0.372,0.24-0.472,0.023c-0.148-0.318-0.181-0.684-0.073-1.096  c0.36,0.301,0.343,0.746,0.545,1.072c0.003,0,0.006-0.004,0.009-0.004l0.004,0.012c0.198-0.078,0.438-0.23,0.546,0.074  c0.159,0.455,0.275,0.928,0.229,1.652c-0.58-0.572-0.524-1.227-0.774-1.727C46.548,77.924,46.542,77.926,46.541,77.926z   M47.119,81.471c0.456,0.475,0.475,0.865,0.553,1.566C47.313,82.445,47.111,82.125,47.119,81.471z M48.42,81.914  c-0.116,0.107-0.263,0.029-0.345-0.096c-0.234-0.35-0.112-0.58,0.246-0.725c-0.006-0.006-0.011-0.014-0.017-0.021  c0.004-0.023,0.007-0.051,0.012-0.076c-0.224-1.055-0.736-2.068-0.598-3.473c0.771,1.264,0.782,2.354,0.598,3.473  c0.006,0.029,0.014,0.061,0.021,0.09c-0.006,0.002-0.012,0.006-0.016,0.008c0.024,0.027,0.049,0.059,0.064,0.088  C48.495,81.422,48.675,81.672,48.42,81.914z M48.447,67.018c-0.064-0.029-0.165-0.045-0.186-0.094  c-0.023-0.059-0.005-0.178,0.041-0.215c0.118-0.092,0.232-0.047,0.247,0.104C48.557,66.875,48.484,66.947,48.447,67.018z   M48.54,57.395c0.002-0.006,0.005-0.012,0.008-0.018c-0.015-0.172-0.043-0.342-0.04-0.512c0.001-0.08,0.062-0.225,0.105-0.227  c0.2-0.018,0.187,0.154,0.151,0.27c-0.051,0.162-0.141,0.314-0.217,0.469c0.002,0.008,0.002,0.014,0.003,0.021L48.54,57.395z   M49.07,79.246c-0.119,0.121-0.237,0.006-0.299-0.117c-0.111-0.236-0.188-0.477-0.083-0.701c0.201-0.08,0.316-0.02,0.382,0.1  C49.201,78.762,49.283,79.023,49.07,79.246z M49.006,61.896c-0.042,0.02-0.186-0.068-0.201-0.127  c-0.057-0.217-0.105-0.457,0.139-0.602c0.03-0.02,0.135,0.094,0.208,0.146C49.22,61.537,49.272,61.766,49.006,61.896z   M49.182,49.011c-0.421-0.456-0.711-0.921-0.652-1.608C49.282,48.119,49.282,48.119,49.182,49.011z M48.773,38.549  c0.713,0.241,0.867,0.844,1.399,1.402C49.269,39.482,49.269,39.482,48.773,38.549z M50.312,49.583c0.001,0.084,0.038,0.209,0,0.24  c-0.151,0.114-0.217-0.029-0.248-0.139c-0.019-0.068,0.031-0.156,0.053-0.234C50.182,49.495,50.246,49.538,50.312,49.583z   M49.681,75.24c0.3,0.5,0.552,1.006,0.311,1.848C49.643,76.346,49.463,75.83,49.681,75.24z M49.906,79.396  c-0.289-0.42-0.396-0.842-0.045-1.395C50.343,78.549,50.02,78.973,49.906,79.396z M50.421,72.986  c-0.077-0.01-0.212,0.002-0.224-0.035c-0.044-0.115-0.093-0.27-0.047-0.363c0.075-0.162,0.216-0.1,0.291,0.029  C50.511,72.736,50.517,72.867,50.421,72.986z M50.78,52.379c-0.079-0.152-0.12-0.318-0.025-0.484  c0.067,0.016,0.186,0.014,0.195,0.047c0.05,0.156,0.134,0.344,0.089,0.482C50.976,52.611,50.836,52.492,50.78,52.379z   M50.942,72.805c-0.047-0.008-0.103-0.131-0.099-0.201c0.003-0.064,0.078-0.125,0.121-0.188c0.052,0.055,0.14,0.104,0.153,0.168  C51.143,72.707,51.116,72.844,50.942,72.805z M51.274,55.205c-0.002,0-0.003,0.002-0.006,0.004c0.442,0.389,0.667,0.811,0.204,1.346  c-0.112-0.055-0.223-0.109-0.335-0.162c-0.088-0.408-0.079-0.807,0.131-1.184c-0.002-0.002-0.005-0.006-0.013-0.01L51.274,55.205  c0,0-0.019-0.006-0.019-0.008c0.004-0.01,0.004-0.016,0.007-0.025c-0.154-0.428-0.38-0.855-0.048-1.463  c0.219,0.566,0.146,1.018,0.048,1.463C51.266,55.182,51.271,55.193,51.274,55.205z M51.552,49.882  c0.424,0.267,0.506,0.576,0.358,1.149C51.557,50.652,51.444,50.352,51.552,49.882z M51.111,57.922  c0.563,0.26,0.341,0.855,0.545,1.268c-0.014,0.342,0.089,0.723-0.366,0.992C50.969,59.42,51.191,58.654,51.111,57.922z   M51.165,73.939c0.392,0.697,0.561,1.186,0.532,1.744c0.009,0.33,0.275,0.68-0.12,1.049c-0.459-0.4-0.265-0.973-0.411-1.434  C51.165,74.945,51.165,74.586,51.165,73.939z M51.831,78.881c-0.324-0.475-0.324-0.475-0.293-1.076  C51.933,78.248,51.933,78.248,51.831,78.881z M51.42,80.582c0.611,0.498,0.589,1.059,0.616,1.592  C51.46,81.826,51.454,81.293,51.42,80.582z M50.206,43.817c1.039,1.154,1.813,2.866,1.892,4.135  C51.104,46.737,50.987,45.127,50.206,43.817z M52.212,55.084c0.364,0.375,0.265,0.785,0.27,1.361  C52.037,55.932,52.111,55.506,52.212,55.084z M52.539,77.227c-0.349-0.57-0.498-1.082-0.322-1.801  C52.705,76.283,52.709,76.283,52.539,77.227z M52.616,70.588c-0.231,0.121-0.301-0.113-0.354-0.275  c-0.057-0.176-0.097-0.389,0.141-0.455c0.146-0.041,0.226,0.109,0.278,0.238C52.735,70.271,52.798,70.492,52.616,70.588z   M52.442,57.68c0.516-0.057,0.425,0.42,0.588,0.672c-0.092,0.303-0.027,0.594,0.049,0.885C52.408,58.906,52.673,58.191,52.442,57.68  z M53.182,76.234c-0.16-0.018-0.214-0.139-0.238-0.268c-0.028-0.176-0.047-0.379,0.167-0.43c0.145-0.031,0.217,0.123,0.239,0.256  C53.38,75.969,53.382,76.143,53.182,76.234z M53.349,80.246c0.678,0.594,0.361,1.492,0.817,2.105  C53.466,81.783,53.275,81.271,53.349,80.246z M54.602,81.113c-0.007,0.041-0.038,0.078-0.106,0.203  c-0.108-0.064-0.159-0.076-0.183-0.109c-0.153-0.223-0.286-0.457-0.182-0.736c0.017-0.041,0.169-0.078,0.219-0.047  C54.622,80.576,54.643,80.838,54.602,81.113z M54.775,72.85c0.367,0.395,0.323,0.758,0.21,1.25  C54.64,73.67,54.496,73.33,54.775,72.85z M54.682,76.717c0.659,1.117,0.659,1.117,0.743,2.559  C55.036,78.584,54.542,77.928,54.682,76.717z M55.123,80.729c0.324,0.281,0.402,0.609,0.384,1.02  C55.191,81.463,55.068,81.152,55.123,80.729z M55.664,72.762c0.358,0.49,0.287,0.928,0.303,1.562  C55.515,73.77,55.351,73.365,55.664,72.762z M55.637,77.463c0.425,1.031,1.071,2.008,1.2,3.176  C56.031,79.744,56.14,78.492,55.637,77.463z M56.634,78.062c0.017-0.08,0.029-0.16,0.045-0.244c0.082,0.006,0.16,0.016,0.238,0.023  c-0.013,0.078-0.002,0.191-0.05,0.232C56.821,78.109,56.714,78.068,56.634,78.062z M57.353,83.447  c-0.323-0.035-0.407-0.266-0.438-0.525c-0.006-0.041,0.148-0.146,0.172-0.133C57.332,82.938,57.429,83.156,57.353,83.447z   M57.614,73.795c-0.466-0.33-0.525-0.754-0.475-1.467C57.778,72.803,57.784,73.244,57.614,73.795z M57.709,66.299  c-0.514-0.432-0.415-0.896-0.303-1.377C57.81,65.268,57.933,65.68,57.709,66.299z M58.295,69.611  c0.323,0.582,0.237,1.264,0.457,1.871C58.279,70.936,58.139,70.311,58.295,69.611z M58.759,74.438  c-0.155,0.045-0.239-0.076-0.254-0.213c-0.007-0.08,0.022-0.197,0.078-0.232c0.139-0.09,0.237,0.002,0.304,0.129  C58.931,74.262,58.907,74.395,58.759,74.438z M58.823,68.711c-0.014-0.174-0.018-0.393,0.223-0.391  c0.081-0.004,0.193,0.174,0.234,0.289c0.063,0.174,0.074,0.361-0.143,0.465C58.898,69.068,58.841,68.893,58.823,68.711z   M59.502,71.65c-0.349,0.078-0.343-0.229-0.427-0.404c-0.096-0.199-0.173-0.424,0.069-0.746  C59.586,70.846,59.643,71.213,59.502,71.65z M58.968,79.598c0.502,0.195,0.939,0.486,1.289,1.137  C59.441,80.66,59.283,80.033,58.968,79.598z M60.5,73.73c-0.231,0.053-0.263-0.143-0.294-0.297  c-0.016-0.061,0.055-0.205,0.077-0.201c0.149,0.012,0.211,0.133,0.25,0.277C60.524,73.578,60.528,73.723,60.5,73.73z M73.244,73.904  c-0.268,0.395-0.622,0.467-1.089,0.451C72.457,73.979,72.758,73.781,73.244,73.904z M68.395,77.998  c0.178-0.016,0.348,0.029,0.41,0.217c0.015,0.039-0.098,0.119-0.148,0.182c-0.179,0.021-0.366-0.006-0.451-0.164  C68.131,78.094,68.267,78.01,68.395,77.998z M65.498,75.928c0.11,0.006,0.216,0.1,0.324,0.158c-0.048,0.088-0.093,0.209-0.113,0.207  c-0.117-0.02-0.265-0.041-0.335-0.119C65.262,76.047,65.339,75.918,65.498,75.928z M64.318,77.096  c0.245-0.066,0.392,0.092,0.53,0.254c-0.017,0.084-0.01,0.217-0.053,0.236c-0.264,0.113-0.385-0.098-0.497-0.271  C64.268,77.264,64.289,77.104,64.318,77.096z M62.843,75.682c-0.392-0.133-0.607-0.477-0.791-0.898  c0.514-0.068,0.773,0.338,1.151,0.393c-0.001-0.002-0.001-0.004-0.001-0.006c0.005,0,0.01-0.002,0.016-0.002  c-0.002-0.164-0.011-0.332,0.235-0.305c0.034,0.004,0.084,0.049,0.088,0.078c0.013,0.252-0.177,0.209-0.323,0.227  c-0.002,0.002,0,0.006,0,0.012c-0.006,0-0.01-0.004-0.015-0.004C63.283,75.486,63.423,75.871,62.843,75.682z M63.39,77.518  c-0.032-0.088,0.039-0.143,0.144-0.137c0.058,0.047,0.117,0.096,0.174,0.141c-0.049,0.047-0.106,0.143-0.145,0.135  C63.496,77.646,63.413,77.578,63.39,77.518z M64.88,83.309c-0.176,0.051-0.352,0.02-0.422-0.178  c-0.018-0.043,0.082-0.129,0.129-0.195c0.187-0.049,0.348-0.018,0.411,0.184C65.013,83.166,64.935,83.291,64.88,83.309z   M63.567,80.637c0.728-0.082,1.373,0.049,1.824,0.682C64.645,81.408,64.117,81.004,63.567,80.637z M65.754,79.941  c-0.144,0.029-0.256-0.031-0.324-0.15c-0.05-0.092,0.003-0.176,0.11-0.168c0.078,0.004,0.164,0.053,0.228,0.102  C65.854,79.795,65.841,79.879,65.754,79.941z M67.141,76.953c0.139-0.029,0.261,0.004,0.316,0.131  c0.021,0.047-0.041,0.133-0.065,0.199c-0.11-0.045-0.219-0.09-0.329-0.133C67.088,77.088,67.113,77.02,67.141,76.953z   M68.552,81.514c-0.459,0.324-0.951,0.387-1.455,0.059c0.174-0.607,1.08,0.002,1.095-0.779c0.002-0.094,0.34-0.047,0.444,0.113  C68.779,81.121,68.74,81.379,68.552,81.514z M67.215,80.359c0.781-0.48,0.781-0.48,1.716-0.16  C68.33,80.471,67.803,80.377,67.215,80.359z M72.76,78.998c-0.041,0.018-0.181-0.08-0.181-0.117  c0.011-0.373,0.275-0.459,0.604-0.605C73.13,78.664,73.025,78.893,72.76,78.998z M73.009,77.629c-0.114,0.02-0.174-0.049-0.145-0.15  c0.071-0.223,0.217-0.381,0.452-0.42c0.109-0.018,0.163,0.061,0.149,0.162C73.406,77.463,73.235,77.586,73.009,77.629z   M71.963,76.561c-0.653,0.312-1.151,0.918-2.099,1.037c0.511-0.879,1.305-1.01,2.033-1.24c0.476-0.535,0.991-1.004,1.755-1.078  C73.243,75.918,72.614,76.254,71.963,76.561z M75.547,73.475c-0.211-0.027-0.422-0.057-0.707-0.092  c0.134-0.48,0.4-0.762,0.837-0.918C75.978,72.891,75.713,73.174,75.547,73.475z M80.538,65.314c0.034-0.004,0.067,0.043,0.101,0.066  c0.002,0.041,0.016,0.092-0.002,0.119c-0.067,0.08-0.15,0.076-0.202-0.02C80.384,65.389,80.433,65.318,80.538,65.314z M77.745,58.58  c-0.59-0.309-1.183-0.617-1.851-0.967C76.923,57.545,76.923,57.545,77.745,58.58z M77.342,58.98c-0.556,0.031-0.843-0.1-1.058-0.492  C76.745,58.418,77.043,58.539,77.342,58.98z M75.168,57.77c-0.63,0.248-0.972,0.32-1.504,0.066  C74.17,57.543,74.518,57.598,75.168,57.77z M74.198,60.115c0.536,0.021,1.017,0.115,1.447,0.674  C74.913,60.848,74.57,60.424,74.198,60.115z M75.604,62.125c0.764,0.102,0.996,0.387,1.16,0.869  C76.151,63.059,76.015,62.631,75.604,62.125z M75.097,59.799c1.674,0.395,2.723,1.51,2.852,3.055  C77.056,61.611,76.466,60.338,75.097,59.799z M77.321,60.145c-0.01-0.004-0.016-0.008-0.026-0.012  c-0.009-0.012-0.017-0.021-0.026-0.035c-0.95-0.285-1.651-1.029-2.591-1.34c1.189-0.035,1.913,0.363,2.591,1.34  c0.015,0.006,0.027,0.012,0.039,0.014C77.313,60.123,77.319,60.133,77.321,60.145c0.797,0.357,0.813,0.363,1.147,1.447  C77.827,61.199,77.524,60.711,77.321,60.145z M78.048,59.738c0.529,0.283,0.529,0.283,0.818,0.928  C78.322,60.465,78.217,60.121,78.048,59.738z M79.191,71.238c-0.007-0.82-0.007-0.82,0.528-1.602  C79.694,70.574,79.694,70.574,79.191,71.238z M79.76,64.123c-0.101,0.033-0.179-0.027-0.16-0.129c0.015-0.08,0.058-0.17,0.118-0.225  c0.077-0.072,0.162-0.043,0.216,0.049C79.952,63.963,79.899,64.076,79.76,64.123z M80.362,68.215  c-0.131-0.482,0.127-0.732,0.51-1.195C80.926,67.674,80.774,67.959,80.362,68.215z M81.974,64.482  c-0.22-0.041-0.192-0.25-0.225-0.412c-0.003-0.002-0.009-0.002-0.012-0.002c-0.001-0.002-0.001-0.006-0.001-0.008  c-0.19,0.115-0.381,0.23-0.674,0.408c-0.066-0.486,0.177-0.799,0.476-0.867c0.385-0.088,0.169,0.279,0.198,0.459  c0.004-0.004,0.006-0.004,0.01-0.006c0.002,0.004,0.001,0.012,0.003,0.016c0.171,0.004,0.374-0.021,0.445,0.176  C82.249,64.398,82.119,64.51,81.974,64.482z M81.681,62.377c0.119-0.457,0.435-0.746,0.831-0.963  C82.441,61.916,82.088,62.17,81.681,62.377z M83.073,63.025c-0.107,0.02-0.202-0.059-0.175-0.158c0.051-0.189,0.21-0.289,0.397-0.32  c0.108-0.018,0.172,0.051,0.184,0.16C83.404,62.891,83.258,62.99,83.073,63.025z M83.703,63.709c-0.055-0.051-0.11-0.102-0.166-0.15  c0.058-0.057,0.109-0.143,0.176-0.156c0.043-0.012,0.108,0.086,0.164,0.135C83.82,63.596,83.762,63.652,83.703,63.709z   M88.747,59.941c-0.059,0.229-0.225,0.359-0.425,0.463c-0.207-0.082-0.416-0.164-0.749-0.293  C87.993,59.738,88.394,59.961,88.747,59.941z M85.186,62.998c-0.12,0.029-0.161-0.061-0.089-0.197  c0.309-0.186,0.542-0.574,1.102-0.449C86.026,62.887,85.575,62.906,85.186,62.998z M88.043,60.514  c0.095,0.164,0.186,0.359-0.08,0.414c-0.457,0.092-0.907,0.004-1.337-0.174C87.045,60.344,87.583,60.646,88.043,60.514z   M89.227,63.623c-0.227-0.07-0.804,0.211-0.442-0.441c0-0.002-0.001-0.002-0.002-0.002c-0.263-0.078-0.528-0.148-0.787-0.238  c-0.369-0.127-0.402-0.336-0.123-0.6c-0.209-0.15-0.562-0.09-0.652-0.5c0.432-0.203,0.828-0.176,1.231,0.061  c-0.117,0.336-0.369,0.352-0.57,0.441c0.286,0.104,0.584,0.184,0.856,0.316c0.258,0.127,0.254,0.326,0.045,0.52h0.002  c0,0.002,0,0.002,0,0.002c0.152,0.133,0.306,0.266,0.457,0.398L89.227,63.623z M89.797,64.688c0.483,0.012,0.601,0.363,0.733,0.699  C90.104,65.361,89.856,65.15,89.797,64.688z M38.132,21.666c0.082-0.009,0.149-0.053,0.206-0.121c0.255-0.3,0.338-1.063,0.42-1.306  c0.237-0.69,0.802-1.259,1.46-1.562c0.588-0.271,1.273-0.176,1.878-0.419c0.583-0.235,1.008-0.666,1.267-1.234  c0.429-0.937,0.215-1.974-0.531-2.681c-1.744-1.653-4.346-0.088-5.381,1.578c-0.516,0.829-0.938,1.781-0.924,2.775  c0.012,0.627,0.194,1.238,0.519,1.772C37.216,20.751,37.737,21.707,38.132,21.666z"></path></svg>